<svg version="1.1" xmlns="http://www.w3.org/2000/svg" viewBox="0 0 802.8039322979965 373.7732984866743" width="802.8039322979965" height="373.7732984866743" filter="invert(93%) hue-rotate(180deg)">
  <!-- svg-source:excalidraw -->
  
  <defs>
    <style class="style-fonts">
      @font-face {
        font-family: "Virgil";
        src: url("https://excalidraw.com/Virgil.woff2");
      }
      @font-face {
        font-family: "Cascadia";
        src: url("https://excalidraw.com/Cascadia.woff2");
      }
      @font-face {
        font-family: "Assistant";
        src: url("https://excalidraw.com/Assistant-Regular.woff2");
      }
    </style>
    
  </defs>
  <g stroke-linecap="round" transform="translate(26.43335439546513 181.59189035570427) rotate(0 32.2305761824785 32.199712367130076)"><path d="M0 0 C0 0, 0 0, 0 0 M0 0 C0 0, 0 0, 0 0 M0.13 12.04 C3.95 7.65, 7.76 3.26, 10.63 -0.03 M0.13 12.04 C3.67 7.98, 7.2 3.91, 10.63 -0.03 M0.27 24.08 C7.33 15.96, 14.39 7.83, 21.26 -0.07 M0.27 24.08 C5.78 17.74, 11.29 11.4, 21.26 -0.07 M-0.26 36.88 C8.84 26.42, 17.93 15.95, 31.89 -0.1 M-0.26 36.88 C12.37 22.35, 24.99 7.83, 31.89 -0.1 M-0.12 48.92 C10.65 36.52, 21.42 24.13, 42.52 -0.14 M-0.12 48.92 C16.26 30.07, 32.64 11.23, 42.52 -0.14 M0.01 60.96 C14.83 43.91, 29.66 26.86, 53.15 -0.17 M0.01 60.96 C18.77 39.38, 37.53 17.79, 53.15 -0.17 M7.36 64.7 C19.71 50.49, 32.06 36.29, 63.78 -0.21 M7.36 64.7 C29.02 39.78, 50.68 14.87, 63.78 -0.21 M17.99 64.66 C31.69 48.91, 45.39 33.15, 64.57 11.08 M17.99 64.66 C33.77 46.51, 49.54 28.36, 64.57 11.08 M28.62 64.63 C40.58 50.87, 52.54 37.11, 64.7 23.12 M28.62 64.63 C41.85 49.41, 55.08 34.19, 64.7 23.12 M39.25 64.59 C47.02 55.66, 54.79 46.72, 64.84 35.16 M39.25 64.59 C47.26 55.38, 55.27 46.17, 64.84 35.16 M49.88 64.56 C55.46 58.14, 61.04 51.73, 64.97 47.2 M49.88 64.56 C53.34 60.58, 56.8 56.6, 64.97 47.2 M60.51 64.53 C61.36 63.55, 62.21 62.57, 64.45 60 M60.51 64.53 C62.01 62.8, 63.51 61.07, 64.45 60 M-0.19 64.24 C-0.19 64.24, -0.19 64.24, -0.19 64.24 M-0.19 64.24 C-0.19 64.24, -0.19 64.24, -0.19 64.24 M11.85 64.1 C7.37 60.2, 2.88 56.31, -0.22 53.61 M11.85 64.1 C8.33 61.04, 4.8 57.97, -0.22 53.61 M24.65 64.63 C15.83 56.96, 7.02 49.3, -0.26 42.98 M24.65 64.63 C16.11 57.2, 7.57 49.78, -0.26 42.98 M36.69 64.49 C27.66 56.64, 18.63 48.8, -0.29 32.35 M36.69 64.49 C24.32 53.74, 11.96 43, -0.29 32.35 M48.73 64.36 C30.45 48.47, 12.18 32.59, -0.33 21.72 M48.73 64.36 C36.52 53.75, 24.31 43.13, -0.33 21.72 M60.77 64.23 C39.94 46.12, 19.11 28.01, -0.36 11.09 M60.77 64.23 C46.06 51.44, 31.35 38.65, -0.36 11.09 M65.26 57.53 C48.27 42.76, 31.29 27.99, 0.36 1.11 M65.26 57.53 C42.91 38.1, 20.56 18.67, 0.36 1.11 M65.23 46.9 C48.9 32.7, 32.56 18.51, 10.89 -0.33 M65.23 46.9 C49.74 33.43, 34.24 19.96, 10.89 -0.33 M65.2 36.27 C51.89 24.7, 38.58 13.13, 22.93 -0.47 M65.2 36.27 C48.82 22.04, 32.45 7.81, 22.93 -0.47 M65.16 25.64 C53.21 15.26, 41.27 4.87, 34.97 -0.6 M65.16 25.64 C53.56 15.55, 41.95 5.47, 34.97 -0.6 M65.13 15.01 C59.78 10.36, 54.43 5.71, 47.77 -0.08 M65.13 15.01 C59.44 10.06, 53.74 5.12, 47.77 -0.08 M65.09 4.38 C63.87 3.32, 62.65 2.26, 59.81 -0.21 M65.09 4.38 C62.99 2.56, 60.9 0.73, 59.81 -0.21" stroke="#ced4da" stroke-width="1" fill="none"></path><path d="M0 0 C17.13 0, 34.27 0, 64.46 0 M0 0 C19.49 0, 38.98 0, 64.46 0 M64.46 0 C64.46 22.43, 64.46 44.86, 64.46 64.4 M64.46 0 C64.46 16.92, 64.46 33.85, 64.46 64.4 M64.46 64.4 C46.26 64.4, 28.05 64.4, 0 64.4 M64.46 64.4 C38.94 64.4, 13.41 64.4, 0 64.4 M0 64.4 C0 44.38, 0 24.36, 0 0 M0 64.4 C0 51.17, 0 37.94, 0 0" stroke="#000000" stroke-width="2" fill="none"></path></g><g stroke-linecap="round"><g transform="translate(41.57581847378742 216.94583701638436) rotate(0 17.442415132602548 2.55013415987014)" fill-rule="evenodd"><path d="M0 0 C4.42 -0.09, 21.02 -0.33, 26.5 -0.56 C31.98 -0.78, 32.03 -0.37, 32.87 -1.35 C33.71 -2.34, 31.42 -4.81, 31.55 -6.47 C31.68 -8.14, 32.76 -11.29, 33.65 -11.34 C34.54 -11.39, 36.42 -8.16, 36.89 -6.8 C37.35 -5.43, 35.65 -3.16, 36.45 -3.14 C37.25 -3.13, 40.12 -6.37, 41.67 -6.72 C43.22 -7.06, 45.48 -6.02, 45.75 -5.22 C46.03 -4.43, 44.62 -2.91, 43.33 -1.94 C42.03 -0.97, 41.2 -2.23, 37.99 0.58 C34.78 3.4, 30.36 12.28, 24.06 14.93 C17.75 17.57, 5.99 18.74, 0.17 16.44 C-5.65 14.14, -10.24 3.95, -10.87 1.11 C-11.49 -1.72, -5.35 -0.41, -3.58 -0.6 C-1.82 -0.79, -0.84 -0.12, -0.29 -0.02" stroke="none" stroke-width="0" fill="#0091e2" fill-rule="evenodd"></path><path d="M0 0 C4.42 -0.09, 21.02 -0.33, 26.5 -0.56 C31.98 -0.78, 32.03 -0.37, 32.87 -1.35 C33.71 -2.34, 31.42 -4.81, 31.55 -6.47 C31.68 -8.14, 32.76 -11.29, 33.65 -11.34 C34.54 -11.39, 36.42 -8.16, 36.89 -6.8 C37.35 -5.43, 35.65 -3.16, 36.45 -3.14 C37.25 -3.13, 40.12 -6.37, 41.67 -6.72 C43.22 -7.06, 45.48 -6.02, 45.75 -5.22 C46.03 -4.43, 44.62 -2.91, 43.33 -1.94 C42.03 -0.97, 41.2 -2.23, 37.99 0.58 C34.78 3.4, 30.36 12.28, 24.06 14.93 C17.75 17.57, 5.99 18.74, 0.17 16.44 C-5.65 14.14, -10.24 3.95, -10.87 1.11 C-11.49 -1.72, -5.35 -0.41, -3.58 -0.6 C-1.82 -0.79, -0.84 -0.12, -0.29 -0.02 M0 0 C4.42 -0.09, 21.02 -0.33, 26.5 -0.56 C31.98 -0.78, 32.03 -0.37, 32.87 -1.35 C33.71 -2.34, 31.42 -4.81, 31.55 -6.47 C31.68 -8.14, 32.76 -11.29, 33.65 -11.34 C34.54 -11.39, 36.42 -8.16, 36.89 -6.8 C37.35 -5.43, 35.65 -3.16, 36.45 -3.14 C37.25 -3.13, 40.12 -6.37, 41.67 -6.72 C43.22 -7.06, 45.48 -6.02, 45.75 -5.22 C46.03 -4.43, 44.62 -2.91, 43.33 -1.94 C42.03 -0.97, 41.2 -2.23, 37.99 0.58 C34.78 3.4, 30.36 12.28, 24.06 14.93 C17.75 17.57, 5.99 18.74, 0.17 16.44 C-5.65 14.14, -10.24 3.95, -10.87 1.11 C-11.49 -1.72, -5.35 -0.41, -3.58 -0.6 C-1.82 -0.79, -0.84 -0.12, -0.29 -0.02" stroke="#0091e2" stroke-width="2" fill="none"></path></g></g><mask></mask><g stroke-linecap="round" transform="translate(35.29085978675789 209.1335990436192) rotate(0 2.783176247165045 2.7831762471650165)"><path d="M0 0 L5.57 0 L5.57 5.57 L0 5.57" stroke="none" stroke-width="0" fill="#0091e2"></path><path d="M0 0 C1.55 0, 3.09 0, 5.57 0 M0 0 C2.11 0, 4.23 0, 5.57 0 M5.57 0 C5.57 1.39, 5.57 2.77, 5.57 5.57 M5.57 0 C5.57 1.24, 5.57 2.47, 5.57 5.57 M5.57 5.57 C3.81 5.57, 2.04 5.57, 0 5.57 M5.57 5.57 C3.59 5.57, 1.6 5.57, 0 5.57 M0 5.57 C0 3.54, 0 1.52, 0 0 M0 5.57 C0 4.27, 0 2.96, 0 0" stroke="#0091e2" stroke-width="2" fill="none"></path></g><g stroke-linecap="round" transform="translate(42.248798458225565 208.87847873915013) rotate(0 2.783176247165045 2.7831762471650165)"><path d="M0 0 L5.57 0 L5.57 5.57 L0 5.57" stroke="none" stroke-width="0" fill="#0091e2"></path><path d="M0 0 C1.65 0, 3.3 0, 5.57 0 M0 0 C1.39 0, 2.78 0, 5.57 0 M5.57 0 C5.57 1.18, 5.57 2.36, 5.57 5.57 M5.57 0 C5.57 2.19, 5.57 4.37, 5.57 5.57 M5.57 5.57 C3.59 5.57, 1.61 5.57, 0 5.57 M5.57 5.57 C3.47 5.57, 1.38 5.57, 0 5.57 M0 5.57 C0 3.8, 0 2.02, 0 0 M0 5.57 C0 4.07, 0 2.58, 0 0" stroke="#0091e2" stroke-width="2" fill="none"></path></g><g stroke-linecap="round" transform="translate(49.53143499122302 208.99443225084252) rotate(0 2.783176247165045 2.7831762471650165)"><path d="M0 0 L5.57 0 L5.57 5.57 L0 5.57" stroke="none" stroke-width="0" fill="#0091e2"></path><path d="M0 0 C1.97 0, 3.94 0, 5.57 0 M0 0 C2.03 0, 4.05 0, 5.57 0 M5.57 0 C5.57 1.35, 5.57 2.7, 5.57 5.57 M5.57 0 C5.57 2, 5.57 4.01, 5.57 5.57 M5.57 5.57 C3.83 5.57, 2.09 5.57, 0 5.57 M5.57 5.57 C3.37 5.57, 1.17 5.57, 0 5.57 M0 5.57 C0 4.18, 0 2.79, 0 0 M0 5.57 C0 3.85, 0 2.14, 0 0" stroke="#0091e2" stroke-width="2" fill="none"></path></g><g stroke-linecap="round" transform="translate(56.79087770757519 208.64654835844095) rotate(0 2.783176247165045 2.7831762471650165)"><path d="M0 0 L5.57 0 L5.57 5.57 L0 5.57" stroke="none" stroke-width="0" fill="#0091e2"></path><path d="M0 0 C1.88 0, 3.76 0, 5.57 0 M0 0 C1.82 0, 3.63 0, 5.57 0 M5.57 0 C5.57 1.98, 5.57 3.95, 5.57 5.57 M5.57 0 C5.57 1.39, 5.57 2.77, 5.57 5.57 M5.57 5.57 C3.85 5.57, 2.14 5.57, 0 5.57 M5.57 5.57 C3.77 5.57, 1.98 5.57, 0 5.57 M0 5.57 C0 4.05, 0 2.54, 0 0 M0 5.57 C0 4.35, 0 3.14, 0 0" stroke="#0091e2" stroke-width="2" fill="none"></path></g><g stroke-linecap="round" transform="translate(63.67923103621365 208.7393158392568) rotate(0 2.783176247165045 2.7831762471650165)"><path d="M0 0 L5.57 0 L5.57 5.57 L0 5.57" stroke="none" stroke-width="0" fill="#0091e2"></path><path d="M0 0 C1.4 0, 2.8 0, 5.57 0 M0 0 C2.05 0, 4.09 0, 5.57 0 M5.57 0 C5.57 1.76, 5.57 3.52, 5.57 5.57 M5.57 0 C5.57 1.8, 5.57 3.6, 5.57 5.57 M5.57 5.57 C3.57 5.57, 1.57 5.57, 0 5.57 M5.57 5.57 C4.35 5.57, 3.13 5.57, 0 5.57 M0 5.57 C0 4.26, 0 2.96, 0 0 M0 5.57 C0 3.78, 0 2, 0 0" stroke="#0091e2" stroke-width="2" fill="none"></path></g><g stroke-linecap="round" transform="translate(42.05164907027279 202.12928831040023) rotate(0 2.783176247165045 2.7831762471650165)"><path d="M0 0 L5.57 0 L5.57 5.57 L0 5.57" stroke="none" stroke-width="0" fill="#0091e2"></path><path d="M0 0 C1.94 0, 3.88 0, 5.57 0 M0 0 C1.46 0, 2.93 0, 5.57 0 M5.57 0 C5.57 1.57, 5.57 3.14, 5.57 5.57 M5.57 0 C5.57 2.2, 5.57 4.41, 5.57 5.57 M5.57 5.57 C3.84 5.57, 2.11 5.57, 0 5.57 M5.57 5.57 C4.42 5.57, 3.28 5.57, 0 5.57 M0 5.57 C0 3.58, 0 1.6, 0 0 M0 5.57 C0 4.42, 0 3.27, 0 0" stroke="#0091e2" stroke-width="2" fill="none"></path></g><g stroke-linecap="round" transform="translate(49.35748331280661 202.2220596841019) rotate(0 2.783176247165045 2.7831762471650165)"><path d="M0 0 L5.57 0 L5.57 5.57 L0 5.57" stroke="none" stroke-width="0" fill="#0091e2"></path><path d="M0 0 C2.02 0, 4.04 0, 5.57 0 M0 0 C1.92 0, 3.84 0, 5.57 0 M5.57 0 C5.57 1.87, 5.57 3.74, 5.57 5.57 M5.57 0 C5.57 1.96, 5.57 3.91, 5.57 5.57 M5.57 5.57 C4.03 5.57, 2.49 5.57, 0 5.57 M5.57 5.57 C4.01 5.57, 2.45 5.57, 0 5.57 M0 5.57 C0 3.53, 0 1.5, 0 0 M0 5.57 C0 4.14, 0 2.71, 0 0" stroke="#0091e2" stroke-width="2" fill="none"></path></g><g stroke-linecap="round" transform="translate(56.75608892904506 202.2220518983341) rotate(0 2.783176247165045 2.7831762471650165)"><path d="M0 0 L5.57 0 L5.57 5.57 L0 5.57" stroke="none" stroke-width="0" fill="#0091e2"></path><path d="M0 0 C1.39 0, 2.77 0, 5.57 0 M0 0 C1.24 0, 2.47 0, 5.57 0 M5.57 0 C5.57 1.76, 5.57 3.52, 5.57 5.57 M5.57 0 C5.57 1.98, 5.57 3.96, 5.57 5.57 M5.57 5.57 C3.54 5.57, 1.52 5.57, 0 5.57 M5.57 5.57 C4.27 5.57, 2.96 5.57, 0 5.57 M0 5.57 C0 3.76, 0 1.95, 0 0 M0 5.57 C0 4.17, 0 2.76, 0 0" stroke="#0091e2" stroke-width="2" fill="none"></path></g><g stroke-linecap="round" transform="translate(56.51255190779716 195.12495811275) rotate(0 2.783176247165045 2.7831762471650165)"><path d="M0 0 L5.57 0 L5.57 5.57 L0 5.57" stroke="none" stroke-width="0" fill="#0091e2"></path><path d="M0 0 C1.18 0, 2.36 0, 5.57 0 M0 0 C2.19 0, 4.37 0, 5.57 0 M5.57 0 C5.57 1.98, 5.57 3.96, 5.57 5.57 M5.57 0 C5.57 2.1, 5.57 4.19, 5.57 5.57 M5.57 5.57 C3.8 5.57, 2.02 5.57, 0 5.57 M5.57 5.57 C4.07 5.57, 2.58 5.57, 0 5.57 M0 5.57 C0 3.49, 0 1.4, 0 0 M0 5.57 C0 3.94, 0 2.31, 0 0" stroke="#0091e2" stroke-width="2" fill="none"></path></g><g transform="translate(10 251.39618457504605) rotate(0 47.83995819091797 12.5)"><text x="0" y="0" font-family="Virgil, Segoe UI Emoji" font-size="20px" fill="#000000" text-anchor="start" style="white-space: pre;" direction="ltr" dominant-baseline="text-before-edge">Docker сli</text></g><g stroke-linecap="round" transform="translate(532.9417629053972 98.39058830089925) rotate(0 79.12550731792487 79.04973718482563)"><path d="M0 0 C0 0, 0 0, 0 0 M0 0 C0 0, 0 0, 0 0 M0.13 12.04 C3.84 7.78, 7.55 3.51, 10.63 -0.03 M0.13 12.04 C2.43 9.4, 4.73 6.76, 10.63 -0.03 M0.27 24.08 C8.33 14.81, 16.38 5.54, 21.26 -0.07 M0.27 24.08 C6.44 16.98, 12.61 9.88, 21.26 -0.07 M-0.26 36.88 C10.63 24.35, 21.52 11.83, 31.89 -0.1 M-0.26 36.88 C10.4 24.62, 21.05 12.36, 31.89 -0.1 M-0.12 48.92 C15.51 30.93, 31.14 12.95, 42.52 -0.14 M-0.12 48.92 C12.82 34.02, 25.77 19.13, 42.52 -0.14 M0.01 60.96 C16.64 41.82, 33.28 22.69, 53.15 -0.17 M0.01 60.96 C19.66 38.36, 39.3 15.76, 53.15 -0.17 M0.14 73 C14.73 56.22, 29.32 39.44, 63.78 -0.21 M0.14 73 C13.87 57.21, 27.6 41.41, 63.78 -0.21 M0.28 85.04 C28.56 52.5, 56.85 19.96, 74.41 -0.24 M0.28 85.04 C22.19 59.83, 44.1 34.63, 74.41 -0.24 M-0.25 97.84 C30.53 62.43, 61.31 27.02, 85.04 -0.28 M-0.25 97.84 C31.42 61.41, 63.09 24.97, 85.04 -0.28 M-0.11 109.88 C27.86 77.7, 55.83 45.52, 95.67 -0.31 M-0.11 109.88 C33.79 70.87, 67.7 31.87, 95.67 -0.31 M0.02 121.92 C36.47 79.99, 72.92 38.06, 106.3 -0.34 M0.02 121.92 C25.97 92.07, 51.91 62.22, 106.3 -0.34 M0.15 133.96 C38.98 89.3, 77.8 44.63, 116.27 0.38 M0.15 133.96 C43.41 84.19, 86.67 34.43, 116.27 0.38 M0.29 146 C31.8 109.75, 63.31 73.5, 126.91 0.34 M0.29 146 C43.43 96.37, 86.58 46.73, 126.91 0.34 M0.42 158.04 C33.41 120.09, 66.4 82.13, 137.54 0.31 M0.42 158.04 C36.31 116.75, 72.2 75.46, 137.54 0.31 M11.05 158.01 C58.27 103.68, 105.49 49.36, 148.17 0.27 M11.05 158.01 C52.26 110.6, 93.47 63.19, 148.17 0.27 M21.68 157.97 C60.78 113, 99.87 68.02, 158.8 0.24 M21.68 157.97 C64.86 108.3, 108.03 58.63, 158.8 0.24 M32.31 157.94 C81.36 101.52, 130.4 45.09, 158.93 12.28 M32.31 157.94 C82.42 100.29, 132.53 42.65, 158.93 12.28 M42.28 158.66 C86.92 107.31, 131.56 55.96, 158.41 25.07 M42.28 158.66 C78.06 117.5, 113.83 76.35, 158.41 25.07 M52.91 158.62 C87.54 118.78, 122.18 78.95, 158.54 37.11 M52.91 158.62 C77.35 130.51, 101.78 102.41, 158.54 37.11 M63.54 158.59 C101.31 115.14, 139.08 71.69, 158.67 49.16 M63.54 158.59 C82.59 136.68, 101.63 114.78, 158.67 49.16 M74.17 158.55 C91.79 138.29, 109.41 118.02, 158.8 61.2 M74.17 158.55 C94.92 134.69, 115.66 110.83, 158.8 61.2 M84.8 158.52 C101.4 139.42, 118.01 120.32, 158.94 73.24 M84.8 158.52 C102.07 138.65, 119.34 118.78, 158.94 73.24 M95.43 158.48 C111.98 139.45, 128.53 120.41, 158.42 86.03 M95.43 158.48 C108.51 143.44, 121.6 128.39, 158.42 86.03 M106.06 158.45 C122.24 139.85, 138.41 121.24, 158.55 98.07 M106.06 158.45 C118.18 144.51, 130.3 130.56, 158.55 98.07 M116.69 158.42 C125.85 147.88, 135.01 137.34, 158.68 110.11 M116.69 158.42 C130.24 142.84, 143.78 127.25, 158.68 110.11 M127.32 158.38 C137.87 146.25, 148.41 134.12, 158.81 122.16 M127.32 158.38 C136.82 147.46, 146.31 136.54, 158.81 122.16 M137.95 158.35 C146.21 148.85, 154.47 139.35, 158.95 134.2 M137.95 158.35 C144.8 150.47, 151.64 142.6, 158.95 134.2 M148.58 158.31 C151.85 154.56, 155.11 150.81, 158.42 146.99 M148.58 158.31 C151.88 154.52, 155.17 150.73, 158.42 146.99 M0.21 158.28 C0.21 158.28, 0.21 158.28, 0.21 158.28 M0.21 158.28 C0.21 158.28, 0.21 158.28, 0.21 158.28 M12.25 158.15 C7.81 154.29, 3.37 150.43, 0.17 147.65 M12.25 158.15 C8.58 154.96, 4.92 151.77, 0.17 147.65 M24.29 158.02 C18.52 153, 12.75 147.98, 0.14 137.02 M24.29 158.02 C19.28 153.66, 14.27 149.31, 0.14 137.02 M36.33 157.88 C27.09 149.85, 17.84 141.81, 0.11 126.39 M36.33 157.88 C23.15 146.42, 9.96 134.96, 0.11 126.39 M49.13 158.4 C38.92 149.53, 28.72 140.66, 0.07 115.76 M49.13 158.4 C33.33 144.67, 17.53 130.94, 0.07 115.76 M61.17 158.27 C46.01 145.09, 30.84 131.91, 0.04 105.13 M61.17 158.27 C39.5 139.44, 17.83 120.6, 0.04 105.13 M73.21 158.14 C44.37 133.07, 15.52 107.99, 0 94.5 M73.21 158.14 C44.04 132.79, 14.88 107.43, 0 94.5 M85.25 158.01 C56.05 132.63, 26.86 107.25, -0.03 83.87 M85.25 158.01 C59.97 136.03, 34.7 114.06, -0.03 83.87 M97.29 157.87 C60.63 126, 23.97 94.13, -0.07 73.24 M97.29 157.87 C64.51 129.38, 31.73 100.88, -0.07 73.24 M110.09 158.4 C68.6 122.33, 27.11 86.27, -0.1 62.61 M110.09 158.4 C77.69 130.23, 45.3 102.07, -0.1 62.61 M122.13 158.26 C82.06 123.43, 41.98 88.6, -0.14 51.98 M122.13 158.26 C76.88 118.93, 31.63 79.59, -0.14 51.98 M134.17 158.13 C89.7 119.47, 45.23 80.81, -0.17 41.35 M134.17 158.13 C102.68 130.76, 71.2 103.39, -0.17 41.35 M146.21 158 C100.58 118.33, 54.95 78.67, -0.2 30.72 M146.21 158 C92.83 111.59, 39.45 65.19, -0.2 30.72 M158.25 157.86 C122.01 126.36, 85.76 94.85, -0.24 20.09 M158.25 157.86 C112.71 118.28, 67.17 78.69, -0.24 20.09 M158.22 147.23 C97.27 94.25, 36.31 41.27, -0.27 9.46 M158.22 147.23 C107.68 103.3, 57.14 59.37, -0.27 9.46 M158.18 136.6 C121.22 104.47, 84.25 72.34, 0.45 -0.51 M158.18 136.6 C125.76 108.42, 93.34 80.23, 0.45 -0.51 M158.15 125.97 C115.17 88.61, 72.19 51.25, 12.49 -0.65 M158.15 125.97 C119.61 92.48, 81.08 58.98, 12.49 -0.65 M158.11 115.34 C110.67 74.1, 63.23 32.86, 24.53 -0.78 M158.11 115.34 C128.13 89.28, 98.14 63.21, 24.53 -0.78 M158.08 104.71 C111.73 64.43, 65.39 24.14, 37.32 -0.26 M158.08 104.71 C113.88 66.29, 69.69 27.88, 37.32 -0.26 M158.04 94.08 C121.05 61.93, 84.06 29.77, 49.36 -0.39 M158.04 94.08 C118.66 59.84, 79.27 25.61, 49.36 -0.39 M158.01 83.45 C130.61 59.63, 103.2 35.81, 61.41 -0.52 M158.01 83.45 C136.72 64.94, 115.43 46.44, 61.41 -0.52 M158.73 73.48 C126.2 45.2, 93.66 16.92, 73.45 -0.66 M158.73 73.48 C131.4 49.72, 104.07 25.96, 73.45 -0.66 M158.69 62.85 C142.61 48.86, 126.52 34.88, 85.49 -0.79 M158.69 62.85 C132.5 40.08, 106.32 17.32, 85.49 -0.79 M158.66 52.22 C145.85 41.08, 133.04 29.95, 98.28 -0.27 M158.66 52.22 C135.56 32.14, 112.47 12.06, 98.28 -0.27 M158.63 41.59 C143.69 28.6, 128.75 15.61, 110.32 -0.4 M158.63 41.59 C142.16 27.27, 125.69 12.96, 110.32 -0.4 M158.59 30.96 C151.05 24.4, 143.5 17.84, 122.36 -0.53 M158.59 30.96 C147.17 21.03, 135.74 11.1, 122.36 -0.53 M158.56 20.33 C152.23 14.83, 145.91 9.34, 134.41 -0.67 M158.56 20.33 C152.15 14.76, 145.74 9.18, 134.41 -0.67 M158.52 9.7 C155.05 6.68, 151.57 3.65, 146.45 -0.8 M158.52 9.7 C155.28 6.88, 152.04 4.06, 146.45 -0.8" stroke="#ced4da" stroke-width="1" fill="none"></path><path d="M0 0 C32.7 0, 65.41 0, 158.25 0 M0 0 C57.51 0, 115.02 0, 158.25 0 M158.25 0 C158.25 53.2, 158.25 106.4, 158.25 158.1 M158.25 0 C158.25 53.19, 158.25 106.38, 158.25 158.1 M158.25 158.1 C116.7 158.1, 75.14 158.1, 0 158.1 M158.25 158.1 C113.48 158.1, 68.72 158.1, 0 158.1 M0 158.1 C0 96.01, 0 33.93, 0 0 M0 158.1 C0 118.16, 0 78.21, 0 0" stroke="#000000" stroke-width="2" fill="none"></path></g><g stroke-linecap="round"><g transform="translate(570.1162504310672 185.18391614521857) rotate(0 42.820827601813335 6.260535275140029)" fill-rule="evenodd"><path d="M0 0 C10.84 -0.23, 51.61 -0.81, 65.06 -1.36 C78.5 -1.92, 78.63 -0.9, 80.69 -3.32 C82.76 -5.74, 77.13 -11.8, 77.45 -15.89 C77.77 -19.98, 80.42 -27.71, 82.6 -27.84 C84.79 -27.97, 89.41 -20.04, 90.55 -16.69 C91.7 -13.34, 87.53 -7.75, 89.49 -7.72 C91.45 -7.68, 98.5 -15.64, 102.31 -16.49 C106.11 -17.34, 111.65 -14.78, 112.32 -12.83 C113 -10.87, 109.55 -7.14, 106.37 -4.76 C103.19 -2.39, 101.15 -5.47, 93.26 1.43 C85.38 8.34, 74.53 30.15, 59.06 36.64 C43.58 43.13, 14.71 46.01, 0.42 40.36 C-13.87 34.71, -25.15 9.71, -26.68 2.74 C-28.22 -4.23, -13.13 -1, -8.8 -1.47 C-4.47 -1.93, -2.05 -0.28, -0.71 -0.05" stroke="none" stroke-width="0" fill="#0091e2" fill-rule="evenodd"></path><path d="M0 0 C10.84 -0.23, 51.61 -0.81, 65.06 -1.36 C78.5 -1.92, 78.63 -0.9, 80.69 -3.32 C82.76 -5.74, 77.13 -11.8, 77.45 -15.89 C77.77 -19.98, 80.42 -27.71, 82.6 -27.84 C84.79 -27.97, 89.41 -20.04, 90.55 -16.69 C91.7 -13.34, 87.53 -7.75, 89.49 -7.72 C91.45 -7.68, 98.5 -15.64, 102.31 -16.49 C106.11 -17.34, 111.65 -14.78, 112.32 -12.83 C113 -10.87, 109.55 -7.14, 106.37 -4.76 C103.19 -2.39, 101.15 -5.47, 93.26 1.43 C85.38 8.34, 74.53 30.15, 59.06 36.64 C43.58 43.13, 14.71 46.01, 0.42 40.36 C-13.87 34.71, -25.15 9.71, -26.68 2.74 C-28.22 -4.23, -13.13 -1, -8.8 -1.47 C-4.47 -1.93, -2.05 -0.28, -0.71 -0.05 M0 0 C10.84 -0.23, 51.61 -0.81, 65.06 -1.36 C78.5 -1.92, 78.63 -0.9, 80.69 -3.32 C82.76 -5.74, 77.13 -11.8, 77.45 -15.89 C77.77 -19.98, 80.42 -27.71, 82.6 -27.84 C84.79 -27.97, 89.41 -20.04, 90.55 -16.69 C91.7 -13.34, 87.53 -7.75, 89.49 -7.72 C91.45 -7.68, 98.5 -15.64, 102.31 -16.49 C106.11 -17.34, 111.65 -14.78, 112.32 -12.83 C113 -10.87, 109.55 -7.14, 106.37 -4.76 C103.19 -2.39, 101.15 -5.47, 93.26 1.43 C85.38 8.34, 74.53 30.15, 59.06 36.64 C43.58 43.13, 14.71 46.01, 0.42 40.36 C-13.87 34.71, -25.15 9.71, -26.68 2.74 C-28.22 -4.23, -13.13 -1, -8.8 -1.47 C-4.47 -1.93, -2.05 -0.28, -0.71 -0.05" stroke="#0091e2" stroke-width="2" fill="none"></path></g></g><mask></mask><g stroke-linecap="round" transform="translate(554.6867855103079 166.0050069819551) rotate(0 6.832649570560534 6.832649570560562)"><path d="M0 0 L13.67 0 L13.67 13.67 L0 13.67" stroke="none" stroke-width="0" fill="#0091e2"></path><path d="M0 0 C3.44 0, 6.88 0, 13.67 0 M0 0 C4.38 0, 8.76 0, 13.67 0 M13.67 0 C13.67 4.9, 13.67 9.8, 13.67 13.67 M13.67 0 C13.67 4.17, 13.67 8.33, 13.67 13.67 M13.67 13.67 C8.67 13.67, 3.68 13.67, 0 13.67 M13.67 13.67 C10.92 13.67, 8.18 13.67, 0 13.67 M0 13.67 C0 8.82, 0 3.98, 0 0 M0 13.67 C0 8.98, 0 4.29, 0 0" stroke="#0091e2" stroke-width="2" fill="none"></path></g><g stroke-linecap="round" transform="translate(571.7684046582207 165.37869104506552) rotate(0 6.832649570560534 6.832649570560562)"><path d="M0 0 L13.67 0 L13.67 13.67 L0 13.67" stroke="none" stroke-width="0" fill="#0091e2"></path><path d="M0 0 C4 0, 8 0, 13.67 0 M0 0 C4.38 0, 8.75 0, 13.67 0 M13.67 0 C13.67 4.71, 13.67 9.42, 13.67 13.67 M13.67 0 C13.67 3, 13.67 6, 13.67 13.67 M13.67 13.67 C8.27 13.67, 2.87 13.67, 0 13.67 M13.67 13.67 C10.39 13.67, 7.12 13.67, 0 13.67 M0 13.67 C0 10.9, 0 8.13, 0 0 M0 13.67 C0 8.3, 0 2.93, 0 0" stroke="#0091e2" stroke-width="2" fill="none"></path></g><g stroke-linecap="round" transform="translate(589.6471514427334 165.66335491163778) rotate(0 6.832649570560534 6.832649570560562)"><path d="M0 0 L13.67 0 L13.67 13.67 L0 13.67" stroke="none" stroke-width="0" fill="#0091e2"></path><path d="M0 0 C2.93 0, 5.85 0, 13.67 0 M0 0 C4.21 0, 8.42 0, 13.67 0 M13.67 0 C13.67 4.26, 13.67 8.52, 13.67 13.67 M13.67 0 C13.67 4.86, 13.67 9.71, 13.67 13.67 M13.67 13.67 C8.31 13.67, 2.96 13.67, 0 13.67 M13.67 13.67 C9.51 13.67, 5.35 13.67, 0 13.67 M0 13.67 C0 10.27, 0 6.87, 0 0 M0 13.67 C0 9.06, 0 4.45, 0 0" stroke="#0091e2" stroke-width="2" fill="none"></path></g><g stroke-linecap="round" transform="translate(607.4689578083622 164.80930597009348) rotate(0 6.832649570560534 6.832649570560562)"><path d="M0 0 L13.67 0 L13.67 13.67 L0 13.67" stroke="none" stroke-width="0" fill="#0091e2"></path><path d="M0 0 C4.09 0, 8.17 0, 13.67 0 M0 0 C3.22 0, 6.44 0, 13.67 0 M13.67 0 C13.67 4.47, 13.67 8.94, 13.67 13.67 M13.67 0 C13.67 4.22, 13.67 8.44, 13.67 13.67 M13.67 13.67 C9.94 13.67, 6.21 13.67, 0 13.67 M13.67 13.67 C9.27 13.67, 4.86 13.67, 0 13.67 M0 13.67 C0 10.59, 0 7.51, 0 0 M0 13.67 C0 10.7, 0 7.74, 0 0" stroke="#0091e2" stroke-width="2" fill="none"></path></g><g stroke-linecap="round" transform="translate(624.3797461426376 165.03704853170956) rotate(0 6.832649570560534 6.832649570560562)"><path d="M0 0 L13.67 0 L13.67 13.67 L0 13.67" stroke="none" stroke-width="0" fill="#0091e2"></path><path d="M0 0 C4.05 0, 8.11 0, 13.67 0 M0 0 C5.07 0, 10.15 0, 13.67 0 M13.67 0 C13.67 3.19, 13.67 6.37, 13.67 13.67 M13.67 0 C13.67 4.59, 13.67 9.17, 13.67 13.67 M13.67 13.67 C9.03 13.67, 4.39 13.67, 0 13.67 M13.67 13.67 C9.31 13.67, 4.96 13.67, 0 13.67 M0 13.67 C0 8.76, 0 3.86, 0 0 M0 13.67 C0 9.4, 0 5.13, 0 0" stroke="#0091e2" stroke-width="2" fill="none"></path></g><g stroke-linecap="round" transform="translate(571.2844063191634 148.8095452241343) rotate(0 6.832649570560534 6.832649570560562)"><path d="M0 0 L13.67 0 L13.67 13.67 L0 13.67" stroke="none" stroke-width="0" fill="#0091e2"></path><path d="M0 0 C4.6 0, 9.2 0, 13.67 0 M0 0 C4.6 0, 9.2 0, 13.67 0 M13.67 0 C13.67 3.59, 13.67 7.18, 13.67 13.67 M13.67 0 C13.67 3.87, 13.67 7.73, 13.67 13.67 M13.67 13.67 C8.3 13.67, 2.93 13.67, 0 13.67 M13.67 13.67 C10.21 13.67, 6.76 13.67, 0 13.67 M0 13.67 C0 8.42, 0 3.17, 0 0 M0 13.67 C0 9.85, 0 6.04, 0 0" stroke="#0091e2" stroke-width="2" fill="none"></path></g><g stroke-linecap="round" transform="translate(589.2201030795401 149.0372973427178) rotate(0 6.832649570560534 6.832649570560562)"><path d="M0 0 L13.67 0 L13.67 13.67 L0 13.67" stroke="none" stroke-width="0" fill="#0091e2"></path><path d="M0 0 C4.71 0, 9.42 0, 13.67 0 M0 0 C3.26 0, 6.51 0, 13.67 0 M13.67 0 C13.67 4.83, 13.67 9.66, 13.67 13.67 M13.67 0 C13.67 3.09, 13.67 6.17, 13.67 13.67 M13.67 13.67 C8.9 13.67, 4.13 13.67, 0 13.67 M13.67 13.67 C8.87 13.67, 4.07 13.67, 0 13.67 M0 13.67 C0 10.1, 0 6.54, 0 0 M0 13.67 C0 8.49, 0 3.3, 0 0" stroke="#0091e2" stroke-width="2" fill="none"></path></g><g stroke-linecap="round" transform="translate(607.3835519585076 149.03727822879245) rotate(0 6.832649570560534 6.832649570560562)"><path d="M0 0 L13.67 0 L13.67 13.67 L0 13.67" stroke="none" stroke-width="0" fill="#0091e2"></path><path d="M0 0 C4.9 0, 9.8 0, 13.67 0 M0 0 C4.17 0, 8.33 0, 13.67 0 M13.67 0 C13.67 4.99, 13.67 9.99, 13.67 13.67 M13.67 0 C13.67 2.74, 13.67 5.48, 13.67 13.67 M13.67 13.67 C8.82 13.67, 3.98 13.67, 0 13.67 M13.67 13.67 C8.98 13.67, 4.29 13.67, 0 13.67 M0 13.67 C0 8.36, 0 3.06, 0 0 M0 13.67 C0 10.68, 0 7.69, 0 0" stroke="#0091e2" stroke-width="2" fill="none"></path></g><g stroke-linecap="round" transform="translate(606.7856727816715 131.6140356814713) rotate(0 6.832649570560534 6.832649570560562)"><path d="M0 0 L13.67 0 L13.67 13.67 L0 13.67" stroke="none" stroke-width="0" fill="#0091e2"></path><path d="M0 0 C4.71 0, 9.42 0, 13.67 0 M0 0 C3 0, 6 0, 13.67 0 M13.67 0 C13.67 5.4, 13.67 10.8, 13.67 13.67 M13.67 0 C13.67 3.27, 13.67 6.54, 13.67 13.67 M13.67 13.67 C10.9 13.67, 8.13 13.67, 0 13.67 M13.67 13.67 C8.3 13.67, 2.93 13.67, 0 13.67 M0 13.67 C0 9.27, 0 4.87, 0 0 M0 13.67 C0 8.48, 0 3.29, 0 0" stroke="#0091e2" stroke-width="2" fill="none"></path></g><g transform="translate(437.5397111065903 270.3006791190773) rotate(0 177.63211059570312 30.687283896952096)"><text x="0" y="0" font-family="Virgil, Segoe UI Emoji" font-size="49.09965423512336px" fill="#000000" text-anchor="start" style="white-space: pre;" direction="ltr" dominant-baseline="text-before-edge">Docker daemon</text></g><g stroke-linecap="round"><g transform="translate(86.77329066182585 213.0404231678117) rotate(0 220.9762281099861 -11.272789871515982)"><path d="M-0.06 -0.37 C73.44 -4.35, 368.04 -19.39, 441.67 -23.26 M-1.55 -1.61 C71.71 -5.5, 366.85 -18.56, 440.57 -22.1" stroke="#1e1e1e" stroke-width="1" fill="none"></path></g><g transform="translate(86.77329066182585 213.0404231678117) rotate(0 220.9762281099861 -11.272789871515982)"><path d="M417.49 -12.48 C425.02 -16.36, 432.63 -19.76, 440.57 -22.1 M417.49 -12.48 C422.66 -14.98, 427.85 -15.96, 440.57 -22.1" stroke="#1e1e1e" stroke-width="1" fill="none"></path></g><g transform="translate(86.77329066182585 213.0404231678117) rotate(0 220.9762281099861 -11.272789871515982)"><path d="M416.71 -29.56 C424.59 -27.38, 432.49 -24.72, 440.57 -22.1 M416.71 -29.56 C422.02 -28.46, 427.38 -25.84, 440.57 -22.1" stroke="#1e1e1e" stroke-width="1" fill="none"></path></g></g><mask></mask><g stroke-linecap="round"><g transform="translate(525.8361867947857 103.78300129892483) rotate(0 -211.40862924302417 37.519210003286446)"><path d="M-0.98 -0.02 C-71.49 12.41, -352.04 63.12, -422.21 75.68" stroke="#1e1e1e" stroke-width="1.5" fill="none" stroke-dasharray="8 9"></path></g><g transform="translate(525.8361867947857 103.78300129892483) rotate(0 -211.40862924302417 37.519210003286446)"><path d="M-421.33 75.97 L-411.78 65.56 L-409.59 80.2 L-423.86 75.84" stroke="none" stroke-width="0" fill="#1e1e1e" fill-rule="evenodd"></path><path d="M-422.21 75.68 C-417.76 73.32, -412.37 70.37, -409.95 67.03 M-409.95 67.03 C-408.81 71.38, -408.91 74.86, -407.71 79.51 M-407.71 79.51 C-411.96 77.41, -415.44 77.12, -422.21 75.68 M-422.21 75.68 C-422.21 75.68, -422.21 75.68, -422.21 75.68" stroke="#1e1e1e" stroke-width="1.5" fill="none"></path></g></g><mask></mask><g stroke-linecap="round" transform="translate(210.2731889387943 10) rotate(0 114.17518271021459 176.88664924333716)"><path d="M94.96 2.76 C105.91 -2.68, 120.49 -0.99, 132.21 1.79 C143.92 4.57, 154.86 11.3, 165.22 19.46 C175.59 27.62, 185.95 37.95, 194.38 50.75 C202.81 63.56, 210.53 80.12, 215.83 96.3 C221.12 112.48, 224.14 130.09, 226.15 147.83 C228.15 165.57, 229.57 184.74, 227.86 202.74 C226.16 220.74, 221.4 239.3, 215.93 255.81 C210.46 272.32, 203.38 288.91, 195.05 301.82 C186.72 314.73, 176.37 325.08, 165.93 333.26 C155.49 341.44, 143.81 347.9, 132.41 350.9 C121.01 353.9, 109.18 353.92, 97.55 351.25 C85.92 348.59, 73.36 343.18, 62.63 334.92 C51.9 326.67, 41.61 314.43, 33.16 301.73 C24.71 289.03, 17.28 274.84, 11.91 258.73 C6.54 242.61, 2.79 223.23, 0.94 205.04 C-0.91 186.86, -1.17 167.49, 0.79 149.62 C2.75 131.75, 7.17 113.91, 12.68 97.83 C18.19 81.76, 25.62 66.16, 33.85 53.16 C42.08 40.16, 51.33 28.38, 62.05 19.81 C72.77 11.24, 91.5 4.1, 98.16 1.71 C104.82 -0.67, 101.66 2.61, 101.99 5.51" stroke="#1e1e1e" stroke-width="1.5" fill="none" stroke-dasharray="8 9"></path></g></svg>