<svg version="1.1" xmlns="http://www.w3.org/2000/svg" viewBox="0 0 865 608" width="865" height="608">
  <!-- svg-source:excalidraw -->
  
  <defs>
    <style class="style-fonts">
      @font-face {
        font-family: "Virgil";
        src: url("https://excalidraw.com/Virgil.woff2");
      }
      @font-face {
        font-family: "Cascadia";
        src: url("https://excalidraw.com/Cascadia.woff2");
      }
      @font-face {
        font-family: "Assistant";
        src: url("https://excalidraw.com/Assistant-Regular.woff2");
      }
    </style>
    
  </defs>
  <g stroke-linecap="round"><g transform="translate(407.1456008233017 233.89704919404983) rotate(0 0.5152619238072589 57.84886025827777)"><path d="M0 0 C-11.91 5.24, -25.27 10.96, -46.03 22.16 M0 0 C-9.59 4.03, -19.99 9.55, -46.03 22.16 M-46.03 22.16 C-49.29 37.81, -50.84 54.08, -57.19 73.85 M-46.03 22.16 C-49.54 42.53, -53.59 62.01, -57.19 73.85 M-57.19 73.85 C-43.93 87.11, -33.07 105.19, -25.59 114.9 M-57.19 73.85 C-49.92 82.87, -42.94 93.39, -25.59 114.9 M-25.59 114.9 C-14.17 114.65, -1.36 113.64, 25.59 115.59 M-25.59 114.9 C-15.62 116.34, -5.34 115.34, 25.59 115.59 M25.59 115.59 C33.91 103.88, 40.62 94.78, 58.22 73.68 M25.59 115.59 C33.46 105.67, 40.41 95.61, 58.22 73.68 M58.22 73.68 C53.69 64.35, 54.59 50.21, 46.89 21.98 M58.22 73.68 C54.27 60.6, 51.94 47.43, 46.89 21.98 M46.89 21.98 C34.77 15.23, 23.58 11.68, 0 0 M46.89 21.98 C30.91 14.07, 14.97 6.21, 0 0" stroke="#aaa" stroke-width="2" fill="none"></path></g></g><mask></mask><g stroke-linecap="round"><g transform="translate(405.8238753290834 232.51252589850856) rotate(0 0.5152619238072589 57.97918288793048)" fill-rule="evenodd"><path d="M-0.29 1.04 L-45.66 21.26 L-56.39 75.09 L-24.69 114.54 L25.45 113.98 L59.54 75.08 L47.25 20.31 L0.6 0.5" stroke="none" stroke-width="0" fill="#228be6" fill-rule="evenodd"></path><path d="M0 0 C-13.37 5.28, -26.64 11.35, -46.03 22.16 M0 0 C-16.92 7.49, -32.43 16.07, -46.03 22.16 M-46.03 22.16 C-47.31 35.28, -49.51 46.53, -57.19 73.85 M-46.03 22.16 C-48.68 38.62, -52.07 54.59, -57.19 73.85 M-57.19 73.85 C-46.11 88.47, -39.14 100.13, -25.59 114.9 M-57.19 73.85 C-50.11 84.37, -43.26 92.39, -25.59 114.9 M-25.59 114.9 C-6.5 113.82, 7.2 117, 25.59 115.59 M-25.59 114.9 C-15.09 114.34, -4.06 114.1, 25.59 115.59 M25.59 115.59 C38.03 98.23, 50.06 84.17, 58.22 73.68 M25.59 115.59 C35.06 102.62, 43.47 92.2, 58.22 73.68 M58.22 73.68 C56.24 53.73, 49.33 37.59, 46.89 21.98 M58.22 73.68 C54.75 56.53, 50.38 39.55, 46.89 21.98 M46.89 21.98 C34.58 16.81, 26.71 11.38, 0 0 M46.89 21.98 C37.42 17.24, 26.32 11.8, 0 0 M0 0 C0 0, 0 0, 0 0 M0 0 C0 0, 0 0, 0 0" stroke="#fff" stroke-width="2" fill="none"></path></g></g><mask></mask><g stroke-linecap="round"><g transform="translate(382.9775197509757 275.78107960493276) rotate(0 10.897539728185961 19.458906581624774)" fill-rule="evenodd"><path d="M0.93 0.89 L-0.29 26.58 L22.53 39.2 L21.51 7.33 L2.52 1.8" stroke="none" stroke-width="0" fill="#fff" fill-rule="evenodd"></path><path d="M0 0 C-0.93 7.24, 0.56 15.05, 0.2 27.05 M0 0 C-0.09 6.31, -0.4 11.66, 0.2 27.05 M0.2 27.05 C8.01 31.52, 14.24 35.09, 21.56 38.92 M0.2 27.05 C8.51 31.81, 16.22 36.26, 21.56 38.92 M21.56 38.92 C20.85 32.29, 21.05 24.45, 22.1 7.39 M21.56 38.92 C21.34 30.55, 22.07 23.03, 22.1 7.39 M22.1 7.39 C15.46 6.54, 9.93 3.72, 2.58 1.97 M22.1 7.39 C14.24 4.94, 7.51 3.28, 2.58 1.97 M2.58 1.97 C1.9 1.67, 1.44 1.22, 0 0 M2.58 1.97 C1.83 1.51, 1.28 0.86, 0 0" stroke="#228be6" stroke-width="1" fill="none"></path></g></g><mask></mask><g stroke-linecap="round"><g transform="translate(431.3874824662373 275.64547746847546) rotate(0 -12.032484332252693 19.52874045606731)" fill-rule="evenodd"><path d="M-0.5 -0.47 L-23.16 7.22 L-23.23 39 L-1.14 27.16 L-0.71 -0.17" stroke="none" stroke-width="0" fill="#fff" fill-rule="evenodd"></path><path d="M0 0 C-6.04 1.91, -13.91 2.98, -24.12 6.94 M0 0 C-7.8 2.13, -14.7 4.7, -24.12 6.94 M-24.12 6.94 C-23.38 19.52, -22.13 31.91, -22.64 39.06 M-24.12 6.94 C-23.48 18.87, -23.32 30.29, -22.64 39.06 M-22.64 39.06 C-14.73 34.26, -6.01 29.45, -1.08 27.32 M-22.64 39.06 C-14.27 34.77, -6.4 30.74, -1.08 27.32 M-1.08 27.32 C-1.53 20.53, 0.42 14.06, 0 0 M-1.08 27.32 C-0.21 19.96, -0.8 12.27, 0 0 M0 0 C0 0, 0 0, 0 0 M0 0 C0 0, 0 0, 0 0" stroke="#228be6" stroke-width="1" fill="none"></path></g></g><mask></mask><g stroke-linecap="round"><g transform="translate(384.74034752492094 272.6622304664145) rotate(0 23.28966693654388 -0.5085080117149232)" fill-rule="evenodd"><path d="M0.97 0.28 L22.19 6.58 L46.52 0.37 L21.87 -7.83 L-0.73 -0.7" stroke="none" stroke-width="0" fill="#fff" fill-rule="evenodd"></path><path d="M0 0 C5.45 1.08, 12.61 3.59, 22.78 6.64 M0 0 C8.91 2.92, 17.98 5.56, 22.78 6.64 M22.78 6.64 C32.27 4.92, 40.87 2.7, 46.58 0.54 M22.78 6.64 C31.39 4.53, 41.2 1.58, 46.58 0.54 M46.58 0.54 C37.61 -2.65, 30.32 -6.1, 22.58 -7.66 M46.58 0.54 C41.25 -0.81, 35.69 -3.53, 22.58 -7.66 M22.58 -7.66 C14.86 -5.41, 5.17 -2.57, 0 0 M22.58 -7.66 C16.91 -5.96, 11.79 -4.4, 0 0 M0 0 C0 0, 0 0, 0 0 M0 0 C0 0, 0 0, 0 0" stroke="#228be6" stroke-width="1" fill="none"></path></g></g><mask></mask><g transform="translate(390.6559212857667 313.8504108694714) rotate(0 16.15998077392578 12.5)"><text x="16.15998077392578" y="17.52" font-family="Virgil, Segoe UI Emoji" font-size="20px" fill="#fff" text-anchor="middle" style="white-space: pre;" direction="ltr" dominant-baseline="alphabetic">pod</text></g><g stroke-linecap="round"><g transform="translate(533.1456008233017 237.89704919404983) rotate(0 0.5152619238073157 57.79521245372081)"><path d="M0 0 C-13.29 4.34, -22.53 11.73, -46.03 22.16 M0 0 C-14.11 6.9, -27.31 12.07, -46.03 22.16 M-46.03 22.16 C-51.99 40.81, -53.01 62.54, -57.19 73.85 M-46.03 22.16 C-49.32 34.29, -51.13 45.55, -57.19 73.85 M-57.19 73.85 C-50.45 86.69, -39.18 94.01, -25.59 114.9 M-57.19 73.85 C-44.87 91.13, -31.68 105.71, -25.59 114.9 M-25.59 114.9 C-11.96 114.85, 3.04 113.99, 25.59 115.59 M-25.59 114.9 C-13.29 114.87, -2.79 115.4, 25.59 115.59 M25.59 115.59 C34.13 100.72, 43.85 91.04, 58.22 73.68 M25.59 115.59 C34.37 103.56, 43.52 93.71, 58.22 73.68 M58.22 73.68 C54.13 57.69, 50.91 41.12, 46.89 21.98 M58.22 73.68 C55.47 57.72, 51.06 40.75, 46.89 21.98 M46.89 21.98 C36.82 15.81, 26.77 13.17, 0 0 M46.89 21.98 C30.04 13.07, 13.01 5.59, 0 0" stroke="#aaa" stroke-width="2" fill="none"></path></g></g><mask></mask><g stroke-linecap="round"><g transform="translate(531.8238753290834 236.51252589850856) rotate(0 0.5152619238073157 57.84125389168821)" fill-rule="evenodd"><path d="M-1.14 1.41 L-45.44 21.7 L-56.4 73.01 L-24.96 115.76 L27.59 117.39 L59.61 74.52 L48.75 23.5 L-1 1.17" stroke="none" stroke-width="0" fill="#228be6" fill-rule="evenodd"></path><path d="M0 0 C-16.74 8.16, -35.07 18.06, -46.03 22.16 M0 0 C-11.7 5.04, -20.67 10.03, -46.03 22.16 M-46.03 22.16 C-47.46 36.65, -54.1 49.88, -57.19 73.85 M-46.03 22.16 C-49.32 36.14, -52.45 48.75, -57.19 73.85 M-57.19 73.85 C-49.46 80.67, -42.27 92.74, -25.59 114.9 M-57.19 73.85 C-49.19 83.23, -41.62 94.05, -25.59 114.9 M-25.59 114.9 C-12.57 113.78, 2.02 113.54, 25.59 115.59 M-25.59 114.9 C-10.79 115.4, 5.89 115.89, 25.59 115.59 M25.59 115.59 C33.36 105.42, 43.82 90.26, 58.22 73.68 M25.59 115.59 C38.03 100.88, 50.32 83.8, 58.22 73.68 M58.22 73.68 C53.61 54.13, 49.75 31.58, 46.89 21.98 M58.22 73.68 C53.87 56.07, 49.39 39.21, 46.89 21.98 M46.89 21.98 C30.1 13.96, 13.41 4.23, 0 0 M46.89 21.98 C37.09 17.13, 27.4 13.24, 0 0 M0 0 C0 0, 0 0, 0 0 M0 0 C0 0, 0 0, 0 0" stroke="#fff" stroke-width="2" fill="none"></path></g></g><mask></mask><g stroke-linecap="round"><g transform="translate(508.9775197509757 279.78107960493276) rotate(0 10.955705491070603 19.458906581624774)" fill-rule="evenodd"><path d="M0.37 -0.15 L0.72 27.24 L21.11 39.32 L22.72 7.84 L2.39 1.9" stroke="none" stroke-width="0" fill="#fff" fill-rule="evenodd"></path><path d="M0 0 C0 6.8, -0.54 10.9, 0.2 27.05 M0 0 C0.4 9.95, -0.09 20.17, 0.2 27.05 M0.2 27.05 C4.47 29.58, 9.82 31.88, 21.56 38.92 M0.2 27.05 C8.23 31.68, 16.21 35.7, 21.56 38.92 M21.56 38.92 C22.6 27.48, 21.38 13.77, 22.1 7.39 M21.56 38.92 C21.7 26.39, 21.86 13.55, 22.1 7.39 M22.1 7.39 C15.92 4.87, 11.15 4.71, 2.58 1.97 M22.1 7.39 C16.63 6.11, 10.95 3.98, 2.58 1.97 M2.58 1.97 C2 1.43, 1.64 1.12, 0 0 M2.58 1.97 C1.98 1.45, 1.42 1, 0 0" stroke="#228be6" stroke-width="1" fill="none"></path></g></g><mask></mask><g stroke-linecap="round"><g transform="translate(557.3874824662373 279.64547746847546) rotate(0 -12.064516290410097 19.52874045606731)" fill-rule="evenodd"><path d="M0.52 0.18 L-24.57 7.34 L-22.02 39.51 L-1.27 27.25 L-0.81 0.66" stroke="none" stroke-width="0" fill="#fff" fill-rule="evenodd"></path><path d="M0 0 C-8.14 1.28, -14.12 3.56, -24.12 6.94 M0 0 C-6.23 1.36, -12.56 3.95, -24.12 6.94 M-24.12 6.94 C-24.24 16.55, -22.45 27.51, -22.64 39.06 M-24.12 6.94 C-24.06 18.67, -22.61 31.57, -22.64 39.06 M-22.64 39.06 C-18.43 35.9, -12.22 34.07, -1.08 27.32 M-22.64 39.06 C-17.54 35.89, -12.36 33.06, -1.08 27.32 M-1.08 27.32 C-0.68 21.51, -0.65 13.89, 0 0 M-1.08 27.32 C-0.83 18.2, -0.88 9.34, 0 0 M0 0 C0 0, 0 0, 0 0 M0 0 C0 0, 0 0, 0 0" stroke="#228be6" stroke-width="1" fill="none"></path></g></g><mask></mask><g stroke-linecap="round"><g transform="translate(510.74034752492094 276.6622304664145) rotate(0 23.28966693654388 -0.5085080117149232)" fill-rule="evenodd"><path d="M-0.45 0.4 L23.4 7.09 L46.4 0.47 L21.77 -7 L0.7 0.18" stroke="none" stroke-width="0" fill="#fff" fill-rule="evenodd"></path><path d="M0 0 C9.58 1.85, 17.14 6.12, 22.78 6.64 M0 0 C5.13 2.16, 11.03 2.86, 22.78 6.64 M22.78 6.64 C30.22 4.96, 36.72 2.97, 46.58 0.54 M22.78 6.64 C31.08 5.08, 38.04 3.2, 46.58 0.54 M46.58 0.54 C38.22 -2.42, 27.32 -5.96, 22.58 -7.66 M46.58 0.54 C39.43 -2.32, 32.1 -4.72, 22.58 -7.66 M22.58 -7.66 C17.72 -6.9, 13.39 -4.31, 0 0 M22.58 -7.66 C14.23 -5.53, 7.2 -2.57, 0 0 M0 0 C0 0, 0 0, 0 0 M0 0 C0 0, 0 0, 0 0" stroke="#228be6" stroke-width="1" fill="none"></path></g></g><mask></mask><g transform="translate(516.6559212857667 317.8504108694714) rotate(0 16.15998077392578 12.5)"><text x="16.15998077392578" y="17.52" font-family="Virgil, Segoe UI Emoji" font-size="20px" fill="#fff" text-anchor="middle" style="white-space: pre;" direction="ltr" dominant-baseline="alphabetic">pod</text></g><g stroke-linecap="round"><g transform="translate(278.1456008233017 230.8660635712548) rotate(0 0.5152619238073157 57.920381885328595)"><path d="M0 0 C-11.06 4.8, -23.28 11.43, -46.03 22.16 M0 0 C-13.92 5.49, -26.91 11.55, -46.03 22.16 M-46.03 22.16 C-50.99 38.4, -52.42 54.8, -57.19 73.85 M-46.03 22.16 C-50.49 37.51, -53.09 50.63, -57.19 73.85 M-57.19 73.85 C-45.23 90.8, -33.22 103.22, -25.59 114.9 M-57.19 73.85 C-44.89 90.63, -31.95 106.05, -25.59 114.9 M-25.59 114.9 C-8.54 114.77, 7.63 116.46, 25.59 115.59 M-25.59 114.9 C-6.35 115.84, 12.91 115.3, 25.59 115.59 M25.59 115.59 C32.45 106.96, 39.53 99.61, 58.22 73.68 M25.59 115.59 C38.97 100.33, 50.6 83.63, 58.22 73.68 M58.22 73.68 C54.41 56.77, 49.58 37.81, 46.89 21.98 M58.22 73.68 C54.88 61.56, 51.93 48.93, 46.89 21.98 M46.89 21.98 C31.99 15.72, 16.4 8.86, 0 0 M46.89 21.98 C36.02 17.5, 23.31 10.31, 0 0" stroke="#aaa" stroke-width="2" fill="none"></path></g></g><mask></mask><g stroke-linecap="round"><g transform="translate(276.82387532908353 229.48154027571354) rotate(0 0.5152619238073157 57.956490450636096)" fill-rule="evenodd"><path d="M1.06 -1.1 L-44.06 22.09 L-56.71 75.14 L-27.19 113.46 L24.82 114.43 L59.51 74.36 L47.59 21.97 L0.52 1.99" stroke="none" stroke-width="0" fill="#228be6" fill-rule="evenodd"></path><path d="M0 0 C-18.32 8.4, -36.79 15.89, -46.03 22.16 M0 0 C-13.86 5.02, -26.13 12.66, -46.03 22.16 M-46.03 22.16 C-49.44 37.84, -53.14 50.16, -57.19 73.85 M-46.03 22.16 C-49.13 31.98, -50.36 43.19, -57.19 73.85 M-57.19 73.85 C-49.05 81.99, -40.04 92.49, -25.59 114.9 M-57.19 73.85 C-46.41 87.1, -35.52 102.02, -25.59 114.9 M-25.59 114.9 C-9.55 116.5, 11.11 115.77, 25.59 115.59 M-25.59 114.9 C-13.89 114.38, -4.36 115.11, 25.59 115.59 M25.59 115.59 C33.98 106.57, 43.47 95.1, 58.22 73.68 M25.59 115.59 C35.6 102.25, 46.51 87.87, 58.22 73.68 M58.22 73.68 C53.63 58.27, 49.56 40.73, 46.89 21.98 M58.22 73.68 C54.19 57, 51.29 40.64, 46.89 21.98 M46.89 21.98 C30.31 15.12, 9.15 6.19, 0 0 M46.89 21.98 C30.72 14.02, 14.91 7.2, 0 0 M0 0 C0 0, 0 0, 0 0 M0 0 C0 0, 0 0, 0 0" stroke="#fff" stroke-width="2" fill="none"></path></g></g><mask></mask><g stroke-linecap="round"><g transform="translate(253.97751975097572 272.75009398213774) rotate(0 11.135039247548832 19.458906581624774)" fill-rule="evenodd"><path d="M0.93 -0.43 L1.06 26.48 L22.27 39.21 L21.87 7.79 L2.16 2.28" stroke="none" stroke-width="0" fill="#fff" fill-rule="evenodd"></path><path d="M0 0 C-0.13 5.8, -0.08 12.27, 0.2 27.05 M0 0 C-0.01 6.45, -0.08 11.99, 0.2 27.05 M0.2 27.05 C6.91 30.1, 12.97 33.7, 21.56 38.92 M0.2 27.05 C8.51 31.42, 15.8 36.07, 21.56 38.92 M21.56 38.92 C22.71 26.8, 22.3 15.3, 22.1 7.39 M21.56 38.92 C21.92 28.14, 22.14 16.65, 22.1 7.39 M22.1 7.39 C17.1 6.05, 9.84 4.58, 2.58 1.97 M22.1 7.39 C15.28 5.59, 9.13 3.82, 2.58 1.97 M2.58 1.97 C1.94 1.42, 1.06 0.95, 0 0 M2.58 1.97 C1.63 1.14, 0.61 0.44, 0 0" stroke="#228be6" stroke-width="1" fill="none"></path></g></g><mask></mask><g stroke-linecap="round"><g transform="translate(302.3874824662373 272.61449184568045) rotate(0 -12.09260828698757 19.52874045606731)" fill-rule="evenodd"><path d="M0.86 -0.57 L-23.42 7.24 L-22.87 39.45 L-1.51 27.64 L0.43 1" stroke="none" stroke-width="0" fill="#fff" fill-rule="evenodd"></path><path d="M0 0 C-7.28 1.22, -14.91 3.32, -24.12 6.94 M0 0 C-5.1 1.06, -9.94 3, -24.12 6.94 M-24.12 6.94 C-24.58 17.23, -22.38 29, -22.64 39.06 M-24.12 6.94 C-24 13.83, -23.02 20.7, -22.64 39.06 M-22.64 39.06 C-17.42 36.28, -12.38 33.95, -1.08 27.32 M-22.64 39.06 C-16.93 35.9, -11.69 32.59, -1.08 27.32 M-1.08 27.32 C-1.62 17.62, -0.13 7.95, 0 0 M-1.08 27.32 C-0.95 20.63, -0.43 13.98, 0 0 M0 0 C0 0, 0 0, 0 0 M0 0 C0 0, 0 0, 0 0" stroke="#228be6" stroke-width="1" fill="none"></path></g></g><mask></mask><g stroke-linecap="round"><g transform="translate(255.74034752492094 269.63124484361947) rotate(0 23.289666936543938 -0.5085080117149232)" fill-rule="evenodd"><path d="M0.71 0.3 L22.55 7.04 L46.16 0.86 L23 -6.66 L0.9 0.69" stroke="none" stroke-width="0" fill="#fff" fill-rule="evenodd"></path><path d="M0 0 C4.52 0.92, 9.53 3.2, 22.78 6.64 M0 0 C7.98 2.45, 16 4.62, 22.78 6.64 M22.78 6.64 C29 5.02, 32.86 4.68, 46.58 0.54 M22.78 6.64 C29.6 5.11, 35.32 3.82, 46.58 0.54 M46.58 0.54 C40.81 -1.44, 33.58 -3.36, 22.58 -7.66 M46.58 0.54 C37.84 -2.85, 29.52 -5.07, 22.58 -7.66 M22.58 -7.66 C15.62 -4.56, 7.64 -3.66, 0 0 M22.58 -7.66 C15.69 -5.26, 9.18 -2.58, 0 0 M0 0 C0 0, 0 0, 0 0 M0 0 C0 0, 0 0, 0 0" stroke="#228be6" stroke-width="1" fill="none"></path></g></g><mask></mask><g transform="translate(261.6559212857667 310.81942524667636) rotate(0 16.15998077392578 12.5)"><text x="16.15998077392578" y="17.52" font-family="Virgil, Segoe UI Emoji" font-size="20px" fill="#fff" text-anchor="middle" style="white-space: pre;" direction="ltr" dominant-baseline="alphabetic">pod</text></g><g stroke-linecap="round" transform="translate(10 10) rotate(0 422.5 294)"><path d="M32 0 C204.2 0.02, 375.55 0.98, 813 0 M32 0 C326.4 0.05, 619.81 -0.22, 813 0 M813 0 C832.9 1.64, 846.62 10.77, 845 32 M813 0 C833.87 0.38, 847.2 9.24, 845 32 M845 32 C847.21 176.33, 847.23 322.27, 845 556 M845 32 C846.75 172.42, 846.68 312.51, 845 556 M845 556 C845.98 579.16, 833.55 589.12, 813 588 M845 556 C846.85 578.03, 833.56 588.04, 813 588 M813 588 C562.61 590.43, 310.34 590.2, 32 588 M813 588 C511.83 590.36, 210.57 590.34, 32 588 M32 588 C9.75 589.87, 1.95 579.22, 0 556 M32 588 C12.8 587.88, -2.08 576.79, 0 556 M0 556 C0.01 383.61, 0.22 212.28, 0 32 M0 556 C1.07 412.33, 1.54 269.46, 0 32 M0 32 C0.93 8.87, 8.99 0.73, 32 0 M0 32 C-2.14 9.03, 11.16 2.11, 32 0" stroke="#1e1e1e" stroke-width="2" fill="none"></path></g><g stroke-linecap="round"><g transform="translate(480 241) rotate(0 53.432738686325024 52.88408427579327)"><path d="M-0.56 -0.12 C17.04 17.61, 87.22 88.19, 105.15 105.99 M1.35 -1.23 C19.36 16.65, 89.84 88.82, 107.42 107" stroke="#e03131" stroke-width="2" fill="none"></path></g></g><mask></mask><g stroke-linecap="round"><g transform="translate(586 228) rotate(0 -51.19155489232389 64.67379263248296)"><path d="M0.44 -1.06 C-16.55 20.3, -84.56 107.39, -101.58 129.26 M-0.78 1 C-18.02 23.01, -85.83 108.64, -102.83 130.41" stroke="#e03131" stroke-width="2" fill="none"></path></g></g><mask></mask><g stroke-linecap="round"><g transform="translate(538.6356728655062 480.19082116364075) rotate(0 0.33466138325877637 37.537851822189225)"><path d="M0 0 C-13.05 6.37, -23.5 10.74, -29.9 14.39 M0 0 C-9.71 4.49, -22.1 9.55, -29.9 14.39 M-29.9 14.39 C-33.64 27.76, -33.85 39.39, -37.15 47.97 M-29.9 14.39 C-32.67 27.61, -35.28 40.2, -37.15 47.97 M-37.15 47.97 C-30.57 53.18, -26.95 60.93, -16.62 74.63 M-37.15 47.97 C-33.25 53.62, -29.94 59.29, -16.62 74.63 M-16.62 74.63 C-5.53 73.76, 6.91 74.81, 16.62 75.08 M-16.62 74.63 C-7.33 74.03, 1.72 74.04, 16.62 75.08 M16.62 75.08 C22 65.95, 27.37 61.28, 37.82 47.86 M16.62 75.08 C20.67 67.97, 26.92 63.08, 37.82 47.86 M37.82 47.86 C37.64 39.78, 34.73 29.47, 30.45 14.28 M37.82 47.86 C35.58 40.09, 34.9 33.17, 30.45 14.28 M30.45 14.28 C18.04 10.39, 7.57 6.37, 0 0 M30.45 14.28 C24.77 11.08, 16.23 8.26, 0 0" stroke="#aaa" stroke-width="2" fill="none"></path></g></g><mask></mask><g stroke-linecap="round"><g transform="translate(537.7772153281919 479.2915766050363) rotate(0 0.33466138325877637 37.596280138095096)" fill-rule="evenodd"><path d="M1.01 1.29 L-30.14 14.91 L-36.53 47.2 L-15.9 76.2 L17.34 73.41 L37.65 48.82 L31.44 15.75 L1.76 -1.65" stroke="none" stroke-width="0" fill="#228be6" fill-rule="evenodd"></path><path d="M0 0 C-12.34 5.23, -21.26 12.44, -29.9 14.39 M0 0 C-7.64 2.69, -12.71 5.62, -29.9 14.39 M-29.9 14.39 C-31.03 26.97, -33.71 40.7, -37.15 47.97 M-29.9 14.39 C-31.55 22.75, -34.21 33.66, -37.15 47.97 M-37.15 47.97 C-29.69 57.91, -22.64 67.87, -16.62 74.63 M-37.15 47.97 C-33.68 54.04, -27.45 58.68, -16.62 74.63 M-16.62 74.63 C-10.45 74.55, -1.69 75.24, 16.62 75.08 M-16.62 74.63 C-6.17 74.23, 4.85 75.59, 16.62 75.08 M16.62 75.08 C21.66 68.93, 26.66 61.96, 37.82 47.86 M16.62 75.08 C24.99 66.28, 31.62 54.96, 37.82 47.86 M37.82 47.86 C35.87 37.27, 31.49 28.09, 30.45 14.28 M37.82 47.86 C36.22 37.5, 33.52 25.85, 30.45 14.28 M30.45 14.28 C17.49 10.79, 5.08 1.54, 0 0 M30.45 14.28 C21.78 11.16, 14.93 6.86, 0 0 M0 0 C0 0, 0 0, 0 0 M0 0 C0 0, 0 0, 0 0" stroke="#fff" stroke-width="2" fill="none"></path></g></g><mask></mask><g stroke-linecap="round"><g transform="translate(522.9385621948588 507.39439842427896) rotate(0 7.113767362428234 12.638513137532868)" fill-rule="evenodd"><path d="M0.59 0.33 L0.19 16.9 L14.85 25.63 L14.12 4.82 L2.46 2.17" stroke="none" stroke-width="0" fill="#fff" fill-rule="evenodd"></path><path d="M0 0 C0.48 6.66, -0.6 12.61, 0.13 17.57 M0 0 C0.29 4.2, 0.37 8.94, 0.13 17.57 M0.13 17.57 C5.52 20.27, 9.14 22.73, 14 25.28 M0.13 17.57 C4.07 20.29, 8.68 22.34, 14 25.28 M14 25.28 C13.17 20.03, 13.39 16.09, 14.36 4.8 M14 25.28 C14.59 18.59, 13.97 12.48, 14.36 4.8 M14.36 4.8 C11.25 4.02, 8.54 3.06, 1.67 1.28 M14.36 4.8 C11.28 4.07, 8.27 3.04, 1.67 1.28 M1.67 1.28 C1.25 1.08, 1.03 0.67, 0 0 M1.67 1.28 C1.27 0.94, 0.91 0.73, 0 0" stroke="#228be6" stroke-width="1" fill="none"></path></g></g><mask></mask><g stroke-linecap="round"><g transform="translate(554.3807168296967 507.3063251619965) rotate(0 -7.83409279475768 12.68387007143275)" fill-rule="evenodd"><path d="M0.06 -0.68 L-14.83 4.86 L-14.94 25.38 L0.08 18.64 L0.56 0.5" stroke="none" stroke-width="0" fill="#fff" fill-rule="evenodd"></path><path d="M0 0 C-5.09 2.02, -9.34 1.88, -15.67 4.51 M0 0 C-3.61 0.93, -7.81 2.59, -15.67 4.51 M-15.67 4.51 C-15.58 10.36, -15.09 16.44, -14.7 25.37 M-15.67 4.51 C-15.01 9.38, -15.67 13.58, -14.7 25.37 M-14.7 25.37 C-11.68 23.35, -7.35 20.66, -0.7 17.75 M-14.7 25.37 C-10.46 22.67, -5.88 20.18, -0.7 17.75 M-0.7 17.75 C-0.25 12.69, -0.86 7.42, 0 0 M-0.7 17.75 C-0.66 13.7, -0.76 9.63, 0 0 M0 0 C0 0, 0 0, 0 0 M0 0 C0 0, 0 0, 0 0" stroke="#228be6" stroke-width="1" fill="none"></path></g></g><mask></mask><g stroke-linecap="round"><g transform="translate(524.0835146045308 505.3687133917823) rotate(0 15.126582797012361 -0.33027473355923576)" fill-rule="evenodd"><path d="M0.84 0.35 L14.56 4.33 L31.04 1.25 L15.23 -4.48 L0.93 -0.75" stroke="none" stroke-width="0" fill="#fff" fill-rule="evenodd"></path><path d="M0 0 C5.3 0.85, 10.9 3.83, 14.8 4.32 M0 0 C3.39 1.32, 6.44 2.29, 14.8 4.32 M14.8 4.32 C19.64 3.3, 23.95 1.5, 30.25 0.35 M14.8 4.32 C20.65 2.53, 26.98 0.73, 30.25 0.35 M30.25 0.35 C26.74 -1.69, 23.35 -1.47, 14.66 -4.98 M30.25 0.35 C26.78 -1.11, 23.74 -1.98, 14.66 -4.98 M14.66 -4.98 C9.63 -3.76, 4.99 -2.11, 0 0 M14.66 -4.98 C9.25 -3.4, 4.72 -1.82, 0 0 M0 0 C0 0, 0 0, 0 0 M0 0 C0 0, 0 0, 0 0" stroke="#228be6" stroke-width="1" fill="none"></path></g></g><mask></mask><g transform="translate(527.9256655691229 532.1203377418717) rotate(0 10.495868740456558 8.118720009085393)"><text x="10.495868740456537" y="11.379197964734104" font-family="Virgil, Segoe UI Emoji" font-size="12.98995201453665px" fill="#fff" text-anchor="middle" style="white-space: pre;" direction="ltr" dominant-baseline="alphabetic">pod</text></g><g transform="translate(565 457) rotate(0 115.40250396728516 17.5)"><text x="0" y="24.528" font-family="Virgil, Segoe UI Emoji" font-size="28px" fill="#1971c2" text-anchor="start" style="white-space: pre;" direction="ltr" dominant-baseline="alphabetic">New pod created</text></g><g stroke-linecap="round"><g transform="translate(539 483) rotate(0 -2.3194215155765505 -67.06597839523104)"><path d="M1.02 0.93 C0.37 -21.11, -3.74 -110.96, -4.81 -133.31 M0.1 0.38 C-0.61 -21.91, -4.59 -112.5, -5.66 -135.07" stroke="#1971c2" stroke-width="2" fill="none"></path></g><g transform="translate(539 483) rotate(0 -2.3194215155765505 -67.06597839523104)"><path d="M3.94 -111.98 C3.55 -116.77, 0.99 -122.89, -5.66 -135.07 M3.94 -111.98 C-0.36 -120.28, -3.97 -130.08, -5.66 -135.07" stroke="#1971c2" stroke-width="2" fill="none"></path></g><g transform="translate(539 483) rotate(0 -2.3194215155765505 -67.06597839523104)"><path d="M-13.14 -111.21 C-9.7 -116.31, -8.42 -122.61, -5.66 -135.07 M-13.14 -111.21 C-11.08 -119.83, -8.33 -129.92, -5.66 -135.07" stroke="#1971c2" stroke-width="2" fill="none"></path></g></g><mask></mask></svg>